<svg width="10" height="20" viewBox="0 0 10 20" fill="none" xmlns="http://www.w3.org/2000/svg">
    <path fill-rule="evenodd" clip-rule="evenodd" d="M0 4.68751L4.28163 0H5.72163L10 4.68751L8.68 6.17251L6.64163 3.9825L6.16163 3.15L5.86163 3.2625L6.00163 4.2525L6.00163 15H5.99837V15.7475L5.85837 16.7375L6.15837 16.85L6.63836 16.0175L8.68 13.8275L10 15.3125L5.71837 20H4.27837L0 15.3125L1.32 13.8275L3.35837 16.0175L3.83837 16.85L4.13837 16.7375L3.99837 15.7475L3.99837 5H4.00163V4.2525L4.14163 3.2625L3.84163 3.15L3.36163 3.9825L1.32 6.17251L0 4.68751Z" />
</svg>
