<svg width="12" height="12" viewBox="0 0 12 12" fill="none" xmlns="http://www.w3.org/2000/svg">
<path fill-rule="evenodd" clip-rule="evenodd" d="M0.142716 1.5209C-0.0475719 1.33061 -0.0475719 1.0221 0.142716 0.831808L0.831808 0.142716C1.0221 -0.0475719 1.33061 -0.0475719 1.5209 0.142716L6 4.62182L10.4791 0.142716C10.6694 -0.0475719 10.9779 -0.0475719 11.1682 0.142716L11.8573 0.831808C12.0476 1.0221 12.0476 1.33061 11.8573 1.5209L7.37818 6L11.8573 10.4791C12.0476 10.6694 12.0476 10.9779 11.8573 11.1682L11.1682 11.8573C10.9779 12.0476 10.6694 12.0476 10.4791 11.8573L6 7.37818L1.5209 11.8573C1.33061 12.0476 1.0221 12.0476 0.831808 11.8573L0.142716 11.1682C-0.0475719 10.9779 -0.0475719 10.6694 0.142716 10.4791L4.62182 6L0.142716 1.5209Z" fill="#969696"/>
</svg>
