<svg width="16" height="16" viewBox="0 0 16 16" fill="none" xmlns="http://www.w3.org/2000/svg">
    <path opacity="0.15" d="M2.91602 2.58325C3.04635 2.45292 3.11902 2.38025 3.24935 2.24992H4.33268L5.11168 1.58325H10.8867L11.6657 2.24992H12.749C12.8793 2.38025 12.952 2.45292 13.0823 2.58325V5.83325L9.74902 11.6249L11.0823 12.5833V14.4166H4.91568V12.5833L6.24902 11.6249L2.91602 5.83325V2.58325Z" fill="white"/>
    <path opacity="0.8" d="M8.33268 3.66659V6.99992L7.66602 6.66659V3.33325L8.33268 3.66659Z" fill="white"/>
    <path opacity="0.8" d="M10.6578 13.9999H10.4911V13.3333H10.6578V13.9999ZM10.2288 13.3333H10.0621V13.9999H10.2288V13.3333ZM9.79975 13.3333H9.63308V13.9999H9.79975V13.3333ZM9.37075 13.3333H9.20408V13.9999H9.37075V13.3333ZM8.94175 13.3333H8.77508V13.9999H8.94175V13.3333ZM8.51308 13.3333H8.34642V13.9999H8.51308V13.3333ZM8.08408 13.3333H7.91742V13.9999H8.08408V13.3333ZM7.65508 13.3333H7.48842V13.9999H7.65508V13.3333ZM7.22642 13.3333H7.05975V13.9999H7.22642V13.3333ZM6.79742 13.3333H6.63075V13.9999H6.79742V13.3333ZM6.36842 13.3333H6.20175V13.9999H6.36842V13.3333ZM5.93942 13.3333H5.77275V13.9999H5.93942V13.3333ZM5.51042 13.3333H5.34375V13.9999H5.51042V13.3333Z" fill="white"/>
    <path d="M12.9227 1.83333H11.308L10.9187 1.5H5.08133L4.692 1.83333H3.07733L2.5 2.41067V5.94467L4.46967 9.367L4.91567 9.47333L6.14033 11.601L4.83333 12.5407V13.3333L4.5 13.6667V14.8333H11.5V13.6667L11.1667 13.3333V12.5407L9.85967 11.6013L11.326 9.05367L11.7793 8.93433L13.5 5.945V2.41067L12.9227 1.83333ZM5.14333 1.66667H10.8567L11.625 2.324V6.084L8.83167 9.29167H7.168L4.37467 6.084V2.324L5.14333 1.66667ZM7.17833 9.375H8.82167L9.62033 11.5833H6.38L7.17833 9.375ZM3 5.811V2.61767L3.28467 2.33333H4.29167V6.11533L7.10167 9.34233L6.30333 11.5507L3 5.811ZM11 12.626V14.3333H5V12.626L6.33467 11.6667H9.665L11 12.626ZM9.69667 11.5507L8.89833 9.34233L11.6983 6.127L11.7083 6.11533V2.33333H12.7153L13 2.618V5.81133L9.69667 11.5507Z" fill="white"/>
</svg>
