<svg version="1.2" xmlns="http://www.w3.org/2000/svg" viewBox="0 0 17 17" width="17" height="17">
    <title>dataBase-svg</title>
    <style>
        .s0 { fill: #969696 }
        .s1 { fill: none;stroke: #969696;stroke-width: 2 }
    </style>
    <path id="Layer" fill-rule="evenodd" class="s0" d="m13.3 10.4c-0.4 0.4-1.2 0.8-2.1 1.1q0.3 0.1 0.6 0.3c1 0.5 1.2 1 1.2 1.2 0 0.2-0.2 0.7-1.2 1.2-0.9 0.5-2.3 0.8-3.8 0.8-1.5 0-2.9-0.3-3.8-0.8-1-0.5-1.2-1-1.2-1.2 0-0.2 0.2-0.7 1.2-1.2q0.3-0.2 0.6-0.3c-0.9-0.3-1.7-0.7-2.1-1.1-1 0.6-1.7 1.5-1.7 2.6 0 1.4 1.1 2.4 2.3 3 1.3 0.6 2.9 1 4.7 1 1.8 0 3.4-0.4 4.7-1 1.2-0.6 2.3-1.6 2.3-3 0-1.1-0.7-2-1.7-2.6z"/>
    <path id="Layer" fill-rule="evenodd" class="s0" d="m13.3 6c-0.4 0.5-1.2 0.9-2.1 1.2q0.3 0.1 0.6 0.2c1 0.5 1.2 1 1.2 1.2 0 0.3-0.2 0.8-1.2 1.3-0.9 0.4-2.3 0.7-3.8 0.7-1.5 0-2.9-0.3-3.8-0.7-1-0.5-1.2-1-1.2-1.3 0-0.2 0.2-0.7 1.2-1.2q0.3-0.1 0.6-0.2c-0.9-0.3-1.7-0.7-2.1-1.2-1 0.6-1.7 1.5-1.7 2.6 0 1.4 1.1 2.5 2.3 3.1 1.3 0.6 2.9 0.9 4.7 0.9 1.8 0 3.4-0.3 4.7-0.9 1.2-0.6 2.3-1.7 2.3-3.1 0-1.1-0.7-2-1.7-2.6z"/>
    <path id="Layer" class="s1" d="m8 7c-3.3 0-6-1.3-6-3 0-1.7 2.7-3 6-3 3.3 0 6 1.3 6 3 0 1.7-2.7 3-6 3z"/>
</svg>
