<svg width="54" height="58" viewBox="0 0 54 58" fill="none" xmlns="http://www.w3.org/2000/svg">
    <path d="M49.5827 11.7977C46.5085 11.2512 44.1175 8.86021 43.571 5.78607C43.571 5.64944 43.366 5.64944 43.2977 5.78607C42.7512 8.86021 40.3602 11.2512 37.2861 11.7977C37.1494 11.7977 37.1494 12.0027 37.2861 12.071C40.3602 12.6175 42.7512 15.0085 43.2977 18.0827C43.2977 18.2193 43.5027 18.2193 43.571 18.0827C44.1175 15.0085 46.5085 12.6175 49.5827 12.071C49.7193 12.0027 49.7193 11.866 49.5827 11.7977Z" fill="#414141"/>
    <path d="M39.1551 5.29741C38 5.09205 37.1015 4.19362 36.8962 3.0385C36.8962 2.98717 36.8192 2.98717 36.7935 3.0385C36.5881 4.19362 35.6897 5.09205 34.5346 5.29741C34.4833 5.29741 34.4833 5.37441 34.5346 5.40008C35.6897 5.60544 36.5881 6.50386 36.7935 7.65899C36.7935 7.71032 36.8705 7.71032 36.8962 7.65899C37.1015 6.50386 38 5.60544 39.1551 5.40008C39.2064 5.37441 39.2064 5.32308 39.1551 5.29741Z" fill="#414141"/>
    <g clip-path="url(#clip0_2899_7782)">
        <path d="M20.4476 23.2877C17.1592 23.2629 13.9256 22.8828 10.8198 21.7073C9.70815 21.2859 8.65937 20.7467 7.75461 19.9514C5.85583 18.2822 5.868 15.983 7.79315 14.3325C9.19492 13.1322 10.8685 12.5001 12.6009 12.0332C16.0232 11.1119 19.5104 10.895 23.032 11.1594C25.6489 11.3557 28.2111 11.8163 30.6474 12.8472C31.8382 13.3512 32.9621 13.9792 33.7918 15.0245C34.8751 16.392 34.873 17.9517 33.7816 19.3048C32.818 20.4988 31.5055 21.1682 30.122 21.6949C27.0041 22.8848 23.7522 23.267 20.4456 23.2877H20.4476Z" fill="#414141"/>
        <path d="M6.4047 37.8984C7.36017 38.2889 8.24464 38.7082 9.1636 39.014C12.807 40.2286 16.564 40.6005 20.3777 40.5137C21.1344 40.4972 21.8911 40.4166 22.6498 40.396C22.7938 40.3918 23.021 40.4931 23.0778 40.6108C24.0698 42.6663 25.4675 44.3768 27.3683 45.8579C26.6482 45.9943 26.0416 46.1347 25.4269 46.2215C21.2987 46.8123 17.1949 46.7132 13.1295 45.7257C11.7014 45.3787 10.2996 44.9263 9.04391 44.1392C8.4049 43.7384 7.81458 43.2364 7.27497 42.7035C6.7313 42.1664 6.42498 41.4661 6.41078 40.6749C6.39455 39.7556 6.40673 38.8363 6.40673 37.8984H6.4047Z" fill="#414141"/>
        <path d="M6.35979 29.3125C11.2568 32.1406 16.5373 32.4649 21.9699 32.31C21.7042 34.3448 21.7488 36.3506 22.3067 38.4288C21.0834 38.4495 19.9271 38.5094 18.7728 38.4825C15.6954 38.4123 12.6444 38.0942 9.72119 37.0509C8.69674 36.6853 7.74127 36.1234 6.7574 35.6462C6.45311 35.4995 6.34762 35.2537 6.35167 34.8963C6.36993 33.0598 6.35979 31.2234 6.35979 29.3125Z" fill="#414141"/>
        <path d="M6.33963 21.4044C9.18374 23.6912 12.4457 24.5238 15.8274 25.0009C18.9008 25.4348 21.9761 25.4306 25.0515 25.0092C25.1996 24.9886 25.3497 24.9906 25.5891 24.9762C25.3254 25.2902 25.1042 25.5381 24.8973 25.7963C23.9195 27.0151 23.1629 28.362 22.6131 29.8328C22.5482 30.0064 22.3169 30.2233 22.1486 30.2357C18.8014 30.4959 15.4805 30.3142 12.2043 29.5333C10.7742 29.1924 9.3866 28.7235 8.10452 27.9757C7.7982 27.798 7.50608 27.5894 7.2241 27.3725C6.61958 26.9097 6.2666 26.3602 6.31732 25.5029C6.39846 24.1726 6.3376 22.8339 6.3376 21.4023L6.33963 21.4044Z" fill="#414141"/>
        <path fill-rule="evenodd" clip-rule="evenodd" d="M35.4771 46.62C28.9754 46.6014 23.7396 41.218 23.7579 34.5723C23.7781 28.0114 29.0647 22.6961 35.5502 22.7188C42.0336 22.7415 47.2674 28.1126 47.2491 34.7252C47.2309 41.2758 41.924 46.6365 35.4771 46.62ZM30.4453 28.0547L35.501 33.1104L40.5557 28.0557L42 29.5L36.9453 34.5547L41.9998 39.6091L40.5555 41.0535L35.501 35.999L30.4455 41.0545L29.0012 39.6101L34.0567 34.5547L29.001 29.499L30.4453 28.0547Z" fill="#414141"/>
    </g>
    <defs>
        <clipPath id="clip0_2899_7782">
            <rect width="40.9353" height="35.5667" fill="white" transform="translate(6.3125 11.0547)"/>
        </clipPath>
    </defs>
</svg>
