<svg width="68" height="42" viewBox="0 0 68 42" fill="none" xmlns="http://www.w3.org/2000/svg">
    <path fill-rule="evenodd" clip-rule="evenodd" d="M10 17C10 14.2386 12.2386 12 15 12H51C53.7614 12 56 14.2386 56 17V21H48C45.7909 21 44 22.7909 44 25V29C44 31.2091 45.7909 33 48 33H56V37C56 39.7614 53.7614 42 51 42H15C12.2386 42 10 39.7614 10 37V17ZM39.4417 20.7979L36.3405 23.899L39.4424 27.0008L38.2018 28.2414L35.1 25.1395L31.9984 28.2411L30.7579 27.0005L33.8594 23.899L30.7586 20.7982L31.9991 19.5576L35.1 22.6584L38.2011 19.5573L39.4417 20.7979ZM24.5294 20.7979L21.4283 23.899L24.5301 27.0008L23.2896 28.2414L20.1877 25.1395L17.0862 28.2411L15.8457 27.0005L18.9472 23.899L15.8464 20.7982L17.0869 19.5576L20.1877 22.6584L23.2889 19.5573L24.5294 20.7979ZM21.9921 36.6366C23.521 35.812 24.9014 35.3179 26.2192 35.1129V36.6337C26.2192 37.0861 26.3467 37.7424 26.7586 38.3144C27.2071 38.9374 27.9459 39.388 28.9736 39.388C30.0487 39.388 30.7783 38.8585 31.2019 38.2408C31.5888 37.6765 31.728 37.0371 31.728 36.6337V35.8825C32.2461 36.0953 32.7784 36.3474 33.3294 36.6398L34.2669 34.8731C32.0106 33.6759 29.8856 33.0146 27.7003 33.0021C25.5127 32.9896 23.358 33.6276 21.0427 34.8763L21.9921 36.6366ZM28.2192 35.0207C28.716 35.0527 29.2173 35.1256 29.728 35.2405V36.6337C29.728 36.6335 29.728 36.6335 29.728 36.6336L29.728 36.6338L29.7279 36.6346V36.6346C29.7272 36.6435 29.7221 36.7087 29.6925 36.8087C29.6617 36.9126 29.6145 37.0192 29.5524 37.1098C29.492 37.1978 29.424 37.2619 29.3476 37.3051C29.2755 37.3459 29.1614 37.388 28.9736 37.388C28.7655 37.388 28.6402 37.3458 28.5659 37.3074C28.4907 37.2687 28.4316 37.2153 28.3816 37.1458C28.2672 36.9868 28.2192 36.766 28.2192 36.6337V35.0207Z" fill="#414141"/>
    <path fill-rule="evenodd" clip-rule="evenodd" d="M49 23C47.3431 23 46 24.3431 46 26V28C46 29.6569 47.3431 31 49 31H57C58.6569 31 60 29.6569 60 28V26C60 24.3431 58.6569 23 57 23H49ZM50 29C51.1046 29 52 28.1046 52 27C52 25.8954 51.1046 25 50 25C48.8954 25 48 25.8954 48 27C48 28.1046 48.8954 29 50 29Z" fill="#414141"/>
    <path fill-rule="evenodd" clip-rule="evenodd" d="M59.0248 1.95029C59.1994 1.42634 58.9163 0.860025 58.3923 0.685377C57.8684 0.510729 57.3021 0.793889 57.1274 1.31783L55.1274 7.31783C54.9528 7.84178 55.2359 8.4081 55.7599 8.58274C56.2838 8.75739 56.8501 8.47423 57.0248 7.95029L59.0248 1.95029ZM65.157 9.03452C65.6306 8.75037 65.7842 8.13611 65.5 7.66253C65.2159 7.18895 64.6016 7.03539 64.128 7.31954L59.128 10.3195C58.6544 10.6037 58.5009 11.2179 58.785 11.6915C59.0692 12.1651 59.6834 12.3187 60.157 12.0345L65.157 9.03452ZM65.1269 16.3177C65.1269 16.8699 64.6792 17.3177 64.1269 17.3177H62.1269C61.5746 17.3177 61.1269 16.8699 61.1269 16.3177C61.1269 15.7654 61.5746 15.3177 62.1269 15.3177H64.1269C64.6792 15.3177 65.1269 15.7654 65.1269 16.3177ZM51.1269 5.31765C51.6792 5.31765 52.1269 4.86994 52.1269 4.31765C52.1269 3.76537 51.6792 3.31765 51.1269 3.31765C50.5746 3.31765 50.1269 3.76537 50.1269 4.31765C50.1269 4.86994 50.5746 5.31765 51.1269 5.31765Z" fill="#414141"/>
</svg>
