<svg width="13" height="13" viewBox="0 0 16 16" fill="none" xmlns="http://www.w3.org/2000/svg">
    <g clip-path="url(#clip0_22191_1300)">
        <path d="M8.00004 1.33337C11.682 1.33337 14.6667 4.31804 14.6667 8.00004C14.6681 9.75036 13.9811 11.431 12.754 12.6791C11.5269 13.9273 9.85814 14.6427 8.10806 14.6711C6.35797 14.6995 4.66693 14.0384 3.40004 12.8307C2.13315 11.623 1.39203 9.96548 1.33671 8.21604L1.33337 8.00004L1.33604 7.81337C1.43471 4.21804 4.38004 1.33337 8.00004 1.33337ZM8.00004 7.33337H7.33337L7.25537 7.33804C7.09334 7.35731 6.944 7.43534 6.83565 7.55735C6.7273 7.67936 6.66745 7.83687 6.66745 8.00004C6.66745 8.16322 6.7273 8.32072 6.83565 8.44273C6.944 8.56474 7.09334 8.64277 7.25537 8.66204L7.33337 8.66671V10.6667L7.33804 10.7447C7.35559 10.8935 7.42276 11.0321 7.52872 11.138C7.63467 11.244 7.77323 11.3112 7.92204 11.3287L8.00004 11.3334H8.66671L8.74471 11.3287C8.89352 11.3112 9.03208 11.244 9.13803 11.138C9.24399 11.0321 9.31116 10.8935 9.32871 10.7447L9.33337 10.6667L9.32871 10.5887C9.31277 10.4527 9.25533 10.3249 9.1642 10.2227C9.07307 10.1204 8.95267 10.0488 8.81937 10.0174L8.74471 10.004L8.66671 10V8.00004L8.66204 7.92204C8.64449 7.77323 8.57732 7.63467 8.47137 7.52872C8.36541 7.42276 8.22685 7.35559 8.07804 7.33804L8.00004 7.33337ZM8.00671 5.33337L7.92204 5.33804C7.76001 5.35731 7.61067 5.43534 7.50232 5.55735C7.39396 5.67936 7.33412 5.83687 7.33412 6.00004C7.33412 6.16322 7.39396 6.32072 7.50232 6.44273C7.61067 6.56474 7.76001 6.64277 7.92204 6.66204L8.00004 6.66671L8.08471 6.66204C8.24674 6.64277 8.39608 6.56474 8.50443 6.44273C8.61279 6.32072 8.67263 6.16322 8.67263 6.00004C8.67263 5.83687 8.61279 5.67936 8.50443 5.55735C8.39608 5.43534 8.24674 5.35731 8.08471 5.33804L8.00671 5.33337Z" fill="#D0B4FF"/>
    </g>
    <defs>
        <clipPath id="clip0_22191_1300">
            <rect width="16" height="16" fill="white"/>
        </clipPath>
    </defs>
</svg>
