<svg width="16" height="16" viewBox="0 0 16 16" fill="none" xmlns="http://www.w3.org/2000/svg">
<path d="M5.99609 10.0988V11.2412H10.1121V10.0988H8.76809V6.62119H6.20609V7.75519H7.59209V10.0988H5.99609Z" fill="#969696"/>
<path d="M7.54169 5.71399C7.68169 5.83159 7.86649 5.89039 8.09609 5.89039C8.32569 5.89039 8.50769 5.83159 8.64209 5.71399C8.78209 5.59639 8.85209 5.43679 8.85209 5.23519C8.85209 5.03359 8.78209 4.87399 8.64209 4.75639C8.50769 4.63879 8.32569 4.57999 8.09609 4.57999C7.86649 4.57999 7.68169 4.63879 7.54169 4.75639C7.40729 4.87399 7.34009 5.03359 7.34009 5.23519C7.34009 5.43679 7.40729 5.59639 7.54169 5.71399Z" fill="#969696"/>
<path fill-rule="evenodd" clip-rule="evenodd" d="M2 8C2 4.68629 4.68629 2 8 2C11.3137 2 14 4.68629 14 8C14 11.3137 11.3137 14 8 14C4.68629 14 2 11.3137 2 8ZM8 12.68C5.41531 12.68 3.32 10.5847 3.32 8C3.32 5.41531 5.41531 3.32 8 3.32C10.5847 3.32 12.68 5.41531 12.68 8C12.68 10.5847 10.5847 12.68 8 12.68Z" fill="#969696"/>
</svg>
