<svg width="16" height="16" viewBox="0 0 16 16" fill="none" xmlns="http://www.w3.org/2000/svg">
    <path d="M7.13961 3C7.09036 2.99987 7.04194 3.01322 6.99917 3.03872C6.9564 3.06421 6.92079 3.10097 6.89587 3.14531L4.03868 8.18566C4.01356 8.23039 4.00022 8.28126 4 8.33311C3.99979 8.38496 4.01271 8.43594 4.03745 8.4809C4.0622 8.52586 4.09789 8.56318 4.14091 8.5891C4.18393 8.61502 4.23275 8.6286 4.28242 8.62847H6.41775L5.43619 12.6316C5.42054 12.6941 5.42506 12.7603 5.44903 12.8198C5.47301 12.8794 5.51511 12.9291 5.56884 12.9612C5.62257 12.9933 5.68492 13.006 5.74627 12.9974C5.80762 12.9888 5.86455 12.9593 5.90826 12.9136L11.9181 6.65334C11.9573 6.61215 11.984 6.55975 11.9947 6.50276C12.0054 6.44578 11.9998 6.38675 11.9784 6.33312C11.957 6.2795 11.921 6.23367 11.8747 6.20143C11.8284 6.16919 11.774 6.15197 11.7184 6.15195H8.98828L10.5932 3.44913C10.6198 3.40447 10.6344 3.35321 10.6355 3.30067C10.6366 3.24812 10.6242 3.19623 10.5996 3.15038C10.575 3.10452 10.5391 3.06639 10.4956 3.03995C10.4521 3.0135 10.4026 2.99971 10.3522 3H7.13961Z" fill="#00E388"/>
</svg>
