<svg width="55" height="16" viewBox="0 0 55 16" fill="none" xmlns="http://www.w3.org/2000/svg">
<path d="M2.11476 2.76588C1.99451 2.63028 2.00068 2.42449 2.12883 2.29634C2.25698 2.16819 2.46277 2.16202 2.59837 2.28227L8.40277 7.42957L13.5501 13.234C13.6703 13.3696 13.6642 13.5754 13.536 13.7035C13.4078 13.8317 13.2021 13.8378 13.0665 13.7176L7.26206 8.57028L2.11476 2.76588Z" fill="#00E388"/>
<path d="M9.57627 0.431348C9.63358 0.259413 9.81488 0.161859 9.98994 0.208766C10.165 0.255673 10.2732 0.43081 10.2369 0.608363L8.68141 8.20877L6.2283 15.5687C6.17099 15.7406 5.98968 15.8382 5.81463 15.7912C5.63957 15.7443 5.53133 15.5692 5.56767 15.3917L7.12316 7.79124L9.57627 0.431348Z" fill="#00E388"/>
<path d="M15.2807 5.66547C15.4583 5.62913 15.6334 5.73737 15.6803 5.91242C15.7272 6.08748 15.6297 6.26879 15.4577 6.3261L8.09785 8.77921L0.497436 10.3347C0.319881 10.371 0.144745 10.2628 0.0978386 10.0877C0.0509317 9.91268 0.148486 9.73137 0.32042 9.67407L7.68032 7.22096L15.2807 5.66547Z" fill="#00E388"/>
<path d="M21.5003 8.7652H22.7937C22.8163 8.91774 22.8953 9.05449 23.0307 9.17546C23.1662 9.29117 23.3467 9.38059 23.5725 9.44371C23.7982 9.50682 24.0555 9.53838 24.3444 9.53838C24.6198 9.53838 24.841 9.51734 25.0081 9.47526C25.1751 9.42793 25.297 9.36218 25.3738 9.27803C25.4505 9.18861 25.4889 9.07816 25.4889 8.94666C25.4889 8.82569 25.4347 8.73102 25.3264 8.66264C25.218 8.59426 25.0397 8.54167 24.7914 8.50485C24.5431 8.46277 24.2022 8.42595 23.7688 8.3944C23.4393 8.3681 23.1413 8.32339 22.875 8.26027C22.6131 8.1919 22.3897 8.09985 22.2046 7.98414C22.0195 7.86843 21.8773 7.72641 21.7779 7.5581C21.6831 7.38453 21.6357 7.17941 21.6357 6.94272C21.6357 6.60084 21.726 6.31156 21.9066 6.07487C22.0872 5.83292 22.3581 5.64883 22.7192 5.5226C23.0804 5.39637 23.5296 5.33325 24.0668 5.33325C24.8614 5.33325 25.4708 5.4963 25.8952 5.8224C26.3195 6.14851 26.5272 6.60873 26.5182 7.20307H25.2925C25.2699 6.94535 25.1458 6.75863 24.92 6.64292C24.6943 6.52194 24.3941 6.46146 24.0194 6.46146C23.6582 6.46146 23.3761 6.50353 23.1729 6.58769C22.9698 6.67184 22.8682 6.81649 22.8682 7.02161C22.8682 7.11103 22.893 7.1873 22.9427 7.25041C22.9969 7.31353 23.0872 7.36613 23.2136 7.4082C23.34 7.45028 23.516 7.4871 23.7418 7.51866C23.9675 7.55021 24.2496 7.58177 24.5882 7.61333C24.9358 7.63963 25.2406 7.68434 25.5024 7.74745C25.7643 7.81057 25.981 7.89998 26.1525 8.0157C26.3286 8.12615 26.4595 8.26816 26.5453 8.44173C26.6356 8.61004 26.6807 8.8178 26.6807 9.06501C26.6807 9.41215 26.5949 9.70406 26.4234 9.94075C26.2563 10.1774 25.9922 10.3589 25.6311 10.4851C25.2699 10.6061 24.8027 10.6666 24.2293 10.6666C23.8591 10.6666 23.5273 10.6298 23.2339 10.5561C22.9449 10.4878 22.6899 10.3905 22.4687 10.2642C22.2475 10.138 22.0646 9.99334 21.9202 9.83029C21.7757 9.66198 21.6673 9.48841 21.5951 9.30958C21.5274 9.12549 21.4958 8.94403 21.5003 8.7652Z" fill="#FFFFFD"/>
<path d="M29.226 9.02556V7.96836H31.779C31.9776 7.96836 32.1379 7.91576 32.2598 7.81057C32.3816 7.70012 32.4426 7.53181 32.4426 7.30564C32.4426 7.06895 32.3816 6.89801 32.2598 6.79282C32.1379 6.68236 31.9776 6.62714 31.779 6.62714H29.3343V10.5404H28.1154V5.45948H31.6232C31.9076 5.45948 32.1717 5.49104 32.4155 5.55416C32.6638 5.61728 32.8805 5.71984 33.0656 5.86185C33.2507 6.00386 33.3952 6.19321 33.499 6.4299C33.6028 6.66133 33.6547 6.95324 33.6547 7.30564C33.6547 7.64752 33.6028 7.93154 33.499 8.15771C33.3952 8.37862 33.2507 8.55482 33.0656 8.68631C32.8805 8.81254 32.6638 8.90196 32.4155 8.95455C32.1717 9.00189 31.9076 9.02556 31.6232 9.02556H29.226Z" fill="#FFFFFD"/>
<path d="M35.3995 9.56994V8.56797H38.9953V9.56994H35.3995ZM34.14 10.5404L36.5372 5.45948H37.878L40.2955 10.5404H38.9615L36.8758 5.9723H37.5394L35.474 10.5404H34.14Z" fill="#FFFFFD"/>
<path d="M41.5654 10.5404V5.45948H45.4456C45.8113 5.45948 46.1341 5.51471 46.414 5.62517C46.6984 5.73036 46.9196 5.9013 47.0776 6.13799C47.2401 6.37467 47.3214 6.68762 47.3214 7.07684C47.3214 7.33983 47.2808 7.56073 47.1995 7.73956C47.1228 7.91313 47.0144 8.05252 46.8745 8.15771C46.7345 8.2629 46.572 8.3418 46.3869 8.3944C46.2063 8.44699 46.0145 8.48118 45.8113 8.49696L45.5607 8.41018C45.9625 8.41543 46.2831 8.44436 46.5223 8.49696C46.7616 8.54956 46.9332 8.64423 47.037 8.78098C47.1453 8.91774 47.1995 9.1176 47.1995 9.38059V10.5404H45.9874V9.51471C45.9874 9.33588 45.958 9.19913 45.8993 9.10446C45.8452 9.00452 45.7368 8.93615 45.5743 8.89933C45.4163 8.86251 45.1793 8.8441 44.8632 8.8441H42.7843V10.5404H41.5654ZM42.7843 7.81846H45.4456C45.6488 7.81846 45.809 7.76586 45.9264 7.66067C46.0438 7.55547 46.1025 7.40031 46.1025 7.19518C46.1025 7.00058 46.0438 6.85856 45.9264 6.76915C45.809 6.67447 45.6488 6.62714 45.4456 6.62714H42.7843V7.81846Z" fill="#FFFFFD"/>
<path d="M51.5083 8.05515L51.5015 7.61333L54.8332 10.5404H53.0455L50.1471 7.85791L52.7678 5.45948H54.5014L51.5083 8.05515ZM48.935 5.45948H50.1539V10.5404H48.935V5.45948Z" fill="#FFFFFD"/>
</svg>
