<svg width="21" height="22" viewBox="0 0 21 22" fill="none" xmlns="http://www.w3.org/2000/svg">
    <path d="M18.4766 12.0251C13.8956 11.2107 10.3326 7.64773 9.51823 3.06676C9.51823 2.86316 9.21283 2.86316 9.11103 3.06676C8.29664 7.64773 4.73366 11.2107 0.152699 12.0251C-0.0508996 12.0251 -0.0508996 12.3305 0.152699 12.4323C4.73366 13.2467 8.29664 16.8097 9.11103 21.3906C9.11103 21.5942 9.41643 21.5942 9.51823 21.3906C10.3326 16.8097 13.8956 13.2467 18.4766 12.4323C18.6802 12.3305 18.6802 12.1269 18.4766 12.0251Z" fill="#6743EE"/>
    <path d="M20.8235 2.82C19.6471 2.46 18.5882 1.38 18.2353 0.18C18.1176 -0.06 17.8824 -0.06 17.8824 0.18C17.4118 1.38 16.3529 2.46 15.1765 2.82C14.9412 2.94 14.9412 3.18 15.1765 3.18C16.4706 3.54 17.4118 4.62 17.7647 5.82C17.8824 6.06 18.1176 6.06 18.1176 5.82C18.5882 4.74 19.6471 3.66 20.8235 3.3C21.0588 3.18 21.0588 2.94 20.8235 2.82Z" fill="#6743EE"/>
</svg>
