<svg width="16" height="16" viewBox="0 0 16 16" fill="none" xmlns="http://www.w3.org/2000/svg">
<path fill-rule="evenodd" clip-rule="evenodd" d="M8 12.8C10.651 12.8 12.8 10.651 12.8 8C12.8 5.34903 10.651 3.2 8 3.2C5.34903 3.2 3.2 5.34903 3.2 8C3.2 10.651 5.34903 12.8 8 12.8ZM8 14C11.3137 14 14 11.3137 14 8C14 4.68629 11.3137 2 8 2C4.68629 2 2 4.68629 2 8C2 11.3137 4.68629 14 8 14Z" fill="#00E388"/>
<path fill-rule="evenodd" clip-rule="evenodd" d="M11 6.99294L7.36267 11L5 8.39718L5.90133 7.40423L7.36267 9.01411L10.0987 6L11 6.99294Z" fill="#00E388"/>
</svg>
