<svg width="24" height="24" viewBox="0 0 24 24" fill="none" xmlns="http://www.w3.org/2000/svg">
<path fill-rule="evenodd" clip-rule="evenodd" d="M4.5 8.5C4.22386 8.5 4 8.27614 4 8V7.5C4 7.22386 4.22386 7 4.5 7H12.3535C12.68 5.84575 13.7412 5 15 5C16.2588 5 17.32 5.84575 17.6465 7H19.5C19.7761 7 20 7.22386 20 7.5V8C20 8.27614 19.7761 8.5 19.5 8.5H17.6465C17.32 9.65425 16.2588 10.5 15 10.5C13.7412 10.5 12.68 9.65425 12.3535 8.5H4.5ZM15 6.5C14.3096 6.5 13.75 7.05964 13.75 7.75C13.75 8.44036 14.3096 9 15 9C15.6904 9 16.25 8.44036 16.25 7.75C16.25 7.05964 15.6904 6.5 15 6.5Z" fill="white"/>
<path fill-rule="evenodd" clip-rule="evenodd" d="M4 16C4 16.2761 4.22386 16.5 4.5 16.5H6.35352C6.67998 17.6543 7.74122 18.5 9 18.5C10.2588 18.5 11.32 17.6543 11.6465 16.5H19.5C19.7761 16.5 20 16.2761 20 16V15.5C20 15.2239 19.7761 15 19.5 15H11.6465C11.32 13.8457 10.2588 13 9 13C7.74122 13 6.67998 13.8457 6.35352 15H4.5C4.22386 15 4 15.2239 4 15.5V16ZM7.75 15.75C7.75 15.0596 8.30964 14.5 9 14.5C9.69036 14.5 10.25 15.0596 10.25 15.75C10.25 16.4404 9.69036 17 9 17C8.30964 17 7.75 16.4404 7.75 15.75Z" fill="white"/>
<path fill-rule="evenodd" clip-rule="evenodd" d="M4 0C1.79086 0 0 1.79086 0 4V20C0 22.2091 1.79086 24 4 24H20C22.2091 24 24 22.2091 24 20V4C24 1.79086 22.2091 0 20 0H4ZM23 4C23 2.34315 21.6569 1 20 1H4C2.34315 1 1 2.34315 1 4V20C1 21.6569 2.34315 23 4 23H20C21.6569 23 23 21.6569 23 20V4Z" fill="currentColor"/>
</svg>
