<svg width="16" height="15" viewBox="0 0 16 15" fill="none" xmlns="http://www.w3.org/2000/svg">
<path fill-rule="evenodd" clip-rule="evenodd" d="M0 6.22222V4.26667C0.233918 3.67407 0.912281 2.41778 1.75439 2.13333C2.59649 1.84889 9.12281 0.592593 12.2807 0C12.6316 0 13.3333 0.213333 13.3333 1.06667V2.13333H11.9298V1.42222L2.80702 3.2C2.57055 3.2 2.17472 3.42608 1.94172 3.74765C2.27082 3.62356 2.62748 3.55566 3 3.55566H13C14.6569 3.55566 16 4.89881 16 6.55566V11.1112C16 12.7681 14.6569 14.1112 13 14.1112H3C1.34315 14.1112 0 12.7681 0 11.1112V6.55567C0 6.44153 0.0063735 6.32889 0.018784 6.21807C0.0124584 6.21958 0.00619637 6.22097 0 6.22222ZM14 8.61121C14 9.43963 13.3284 10.1112 12.5 10.1112C11.6716 10.1112 11 9.43963 11 8.61121C11 7.78278 11.6716 7.11121 12.5 7.11121C13.3284 7.11121 14 7.78278 14 8.61121Z" fill="#969696"/>
</svg>
