<svg width="16" height="16" viewBox="0 0 16 16" fill="none" xmlns="http://www.w3.org/2000/svg">
<path d="M8.00369 5.79076C8.17257 5.79076 8.33453 5.85729 8.45395 5.97572C8.57336 6.09415 8.64045 6.25477 8.64045 6.42225V8.94819C8.64045 9.11567 8.57336 9.27629 8.45395 9.39472C8.33453 9.51314 8.17257 9.57967 8.00369 9.57967C7.83481 9.57967 7.67285 9.51314 7.55344 9.39472C7.43402 9.27629 7.36694 9.11567 7.36694 8.94819V6.42225C7.36694 6.25477 7.43402 6.09415 7.55344 5.97572C7.67285 5.85729 7.83481 5.79076 8.00369 5.79076Z" fill="#FF6F06"/>
<path d="M8.00369 11.474C8.35536 11.474 8.64045 11.1913 8.64045 10.8425C8.64045 10.4937 8.35536 10.211 8.00369 10.211C7.65202 10.211 7.36694 10.4937 7.36694 10.8425C7.36694 11.1913 7.65202 11.474 8.00369 11.474Z" fill="#FF6F06"/>
<path fill-rule="evenodd" clip-rule="evenodd" d="M1.27956 11.0319L6.16348 2.9994C6.36097 2.69302 6.63306 2.44087 6.95466 2.26621C7.27627 2.09155 7.63704 2 8.00371 2C8.37038 2 8.73115 2.09155 9.05275 2.26621C9.37436 2.44087 9.64645 2.69302 9.84393 2.9994L14.7278 11.0319C14.9004 11.3171 14.9941 11.6423 14.9997 11.9749C15.0053 12.3074 14.9225 12.6356 14.7597 12.9264C14.5714 13.2536 14.2989 13.5255 13.97 13.7141C13.6411 13.9027 13.2676 14.0013 12.8876 13.9999H3.11979C2.74235 14.0039 2.37053 13.9091 2.04184 13.725C1.71315 13.541 1.43923 13.2742 1.24773 12.9516C1.0801 12.6578 0.994661 12.325 1.00026 11.9875C1.00586 11.6499 1.10228 11.3201 1.27956 11.0319ZM2.36205 12.3264C2.43858 12.4569 2.54964 12.5641 2.6832 12.6365C2.81677 12.7088 2.96775 12.7436 3.11979 12.7369H12.8876C13.0397 12.7436 13.1906 12.7088 13.3242 12.6365C13.4578 12.5641 13.5688 12.4569 13.6454 12.3264C13.7013 12.2304 13.7307 12.1215 13.7307 12.0107C13.7307 11.8999 13.7013 11.791 13.6454 11.695L8.75508 3.65615C8.6672 3.54103 8.55363 3.44767 8.42327 3.38339C8.2929 3.31911 8.14929 3.28566 8.00371 3.28566C7.85812 3.28566 7.71451 3.31911 7.58415 3.38339C7.45378 3.44767 7.34021 3.54103 7.25233 3.65615L2.36842 11.6886C2.31037 11.7848 2.27919 11.8946 2.27807 12.0067C2.27695 12.1188 2.30593 12.2291 2.36205 12.3264Z" fill="#FF6F06"/>
</svg>
