<svg xmlns="http://www.w3.org/2000/svg" width="24" height="24" fill="none"><g clip-path="url(#a)"><path fill="#F6941A" d="M12 24A12 12 0 1 0 12 .001 12 12 0 0 0 12 24"/><path fill="#fff" d="M15.513 11.465c.755-.392 1.227-1.083 1.117-2.233-.149-1.573-1.48-2.1-3.16-2.25L13.468 4.8h-1.302v2.124q-.516.002-1.04.014V4.8h-1.3v2.181q-.424.01-.83.011v-.006H7.2v1.417s.962-.018.946 0c.527 0 .7.312.75.582v5.975c-.024.17-.121.44-.49.44.017.015-.947 0-.947 0L7.2 16.986h1.695q.473.002.93.008l.001 2.206h1.3v-2.183q.537.011 1.04.01V19.2h1.303v-2.202c2.19-.129 3.722-.69 3.912-2.787.154-1.688-.625-2.442-1.868-2.746M11.158 8.5c.735 0 3.044-.239 3.044 1.326 0 1.5-2.309 1.325-3.044 1.325zm0 6.912v-2.923c.882 0 3.65-.259 3.65 1.461 0 1.65-2.768 1.462-3.65 1.462"/></g><defs><clipPath id="a"><path fill="#fff" d="M0 0h24v24H0z"/></clipPath></defs></svg>