<svg width="24" height="24" viewBox="0 0 24 24" fill="none" xmlns="http://www.w3.org/2000/svg">
<g clip-path="url(#clip0_2225_26162)">
<g clip-path="url(#clip1_2225_26162)">
<path d="M12 24C18.6274 24 24 18.6274 24 12C24 5.37258 18.6274 0 12 0C5.37258 0 0 5.37258 0 12C0 18.6274 5.37258 24 12 24Z" fill="#F9FAFB"/>
<path d="M23.5 12C23.5 18.3513 18.3513 23.5 12 23.5C5.64872 23.5 0.5 18.3513 0.5 12C0.5 5.64872 5.64872 0.5 12 0.5C18.3513 0.5 23.5 5.64872 23.5 12Z" stroke="black" stroke-opacity="0.1"/>
<path d="M6.86914 12.1524L12.0584 15.1651L12.924 8.77026L6.86914 12.1524Z" fill="#393939"/>
<path d="M12.0583 3.69482L9.59961 12.3622L17.2469 12.1521L12.0583 3.69482Z" fill="#343434"/>
<path d="M12.0584 3.69482L6.86914 12.1521L12.0584 9.83365V3.69482Z" fill="#8C8C8C"/>
<path d="M12.0584 20.3019L12.186 16.2004L6.86914 13.1187L12.0584 20.3019Z" fill="#8C8C8C"/>
<path d="M12.0576 16.1306V20.3019L17.2497 13.1187L12.0576 16.1306Z" fill="#3C3C3B"/>
<path d="M12.0586 15.1647L17.2472 12.1521L12.0586 9.83496V15.1647Z" fill="#141414"/>
</g>
</g>
<defs>
<clipPath id="clip0_2225_26162">
<rect width="24" height="24" fill="white"/>
</clipPath>
<clipPath id="clip1_2225_26162">
<rect width="24" height="24" fill="white"/>
</clipPath>
</defs>
</svg>
