<svg xmlns="http://www.w3.org/2000/svg" width="24" height="24" fill="none"><g clip-path="url(#a)"><g clip-path="url(#b)"><path fill="#F9FAFB" d="M12 24c6.627 0 12-5.373 12-12S18.627 0 12 0 0 5.373 0 12s5.373 12 12 12"/><path stroke="#000" stroke-opacity=".1" d="M23.5 12c0 6.351-5.149 11.5-11.5 11.5S.5 18.351.5 12 5.649.5 12 .5 23.5 5.649 23.5 12Z"/><path fill="#393939" d="m6.87 12.152 5.188 3.013.866-6.395z"/><path fill="#343434" d="M12.058 3.695 9.6 12.362l7.647-.21z"/><path fill="#8C8C8C" d="M12.058 3.695 6.87 12.152l5.19-2.318zm0 16.607.128-4.102-5.317-3.081z"/><path fill="#3C3C3B" d="M12.058 16.13v4.172l5.192-7.183z"/><path fill="#141414" d="m12.059 15.165 5.188-3.013-5.188-2.317z"/></g></g><defs><clipPath id="a"><path fill="#fff" d="M0 0h24v24H0z"/></clipPath><clipPath id="b"><path fill="#fff" d="M0 0h24v24H0z"/></clipPath></defs></svg>