<svg xmlns="http://www.w3.org/2000/svg" width="24" height="24" fill="none"><g clip-path="url(#a)"><g clip-path="url(#b)"><path fill="#2775C9" d="M11.773 24c2.328 0 4.604-.704 6.54-2.022a11.95 11.95 0 0 0 4.336-5.386 12.2 12.2 0 0 0 .67-6.933 12.07 12.07 0 0 0-3.222-6.144A11.7 11.7 0 0 0 14.069.23a11.57 11.57 0 0 0-6.802.682 11.8 11.8 0 0 0-5.283 4.42A12.17 12.17 0 0 0 0 12c0 3.183 1.24 6.235 3.448 8.485A11.66 11.66 0 0 0 11.773 24"/><path fill="#fff" d="M15.305 13.783c0-1.75-1.03-2.34-3.021-2.623-1.472-.22-1.755-.578-1.755-1.287 0-.71.498-1.153 1.45-1.153.868 0 1.368.313 1.574 1.035q.033.122.13.199a.37.37 0 0 0 .22.079h.761a.33.33 0 0 0 .263-.121.35.35 0 0 0 .078-.287c-.241-1.143-.986-1.83-2.153-2.045V6.375a.38.38 0 0 0-.107-.265.36.36 0 0 0-.255-.11h-.725a.36.36 0 0 0-.256.11.38.38 0 0 0-.106.265v1.162c-1.45.21-2.367 1.2-2.367 2.47 0 1.643.967 2.28 2.988 2.563 1.375.232 1.767.54 1.767 1.348 0 .807-.665 1.35-1.603 1.35-1.264 0-1.692-.573-1.835-1.315a.38.38 0 0 0-.125-.218.36.36 0 0 0-.23-.087h-.826a.33.33 0 0 0-.26.122.35.35 0 0 0-.076.285c.21 1.25.986 2.165 2.566 2.385v1.185c0 .1.039.195.107.265s.16.11.256.11h.725c.096 0 .189-.04.256-.11a.38.38 0 0 0 .107-.265V16.44c1.498-.245 2.453-1.315 2.453-2.658"/><path fill="#fff" d="M9.668 18.876c-1.508-.515-2.81-1.45-3.73-2.68A7 7 0 0 1 4.527 12c0-1.5.493-2.965 1.413-4.195s2.221-2.166 3.729-2.68a.56.56 0 0 0 .239-.186.5.5 0 0 0 .097-.276V3.98a.33.33 0 0 0-.031-.177.35.35 0 0 0-.122-.138.39.39 0 0 0-.369-.034c-1.898.566-3.555 1.682-4.73 3.186A8.4 8.4 0 0 0 2.942 12c0 1.864.634 3.679 1.81 5.183 1.175 1.505 2.832 2.62 4.73 3.186a.39.39 0 0 0 .369-.034.35.35 0 0 0 .122-.138.33.33 0 0 0 .031-.177v-.683a.5.5 0 0 0-.097-.276.56.56 0 0 0-.24-.185m4.94-15.245a.33.33 0 0 0-.338.034.35.35 0 0 0-.14.315v.683a.54.54 0 0 0 .308.461 7.2 7.2 0 0 1 3.418 2.68A7.4 7.4 0 0 1 19.151 12a7.4 7.4 0 0 1-1.296 4.195 7.2 7.2 0 0 1-3.418 2.68.5.5 0 0 0-.225.182.5.5 0 0 0-.083.28v.683a.35.35 0 0 0 .14.316.34.34 0 0 0 .338.033 8.6 8.6 0 0 0 4.336-3.186A8.9 8.9 0 0 0 20.602 12a8.9 8.9 0 0 0-1.659-5.183 8.62 8.62 0 0 0-4.336-3.186"/></g></g><defs><clipPath id="a"><path fill="#fff" d="M0 0h24v24H0z"/></clipPath><clipPath id="b"><path fill="#fff" d="M0 0h23.545v24H0z"/></clipPath></defs></svg>