<svg width="24" height="24" viewBox="0 0 24 24" fill="none" xmlns="http://www.w3.org/2000/svg">
<rect x="1" y="1" width="22" height="22" rx="11" fill="#50AF95"/>
<path fill-rule="evenodd" clip-rule="evenodd" d="M13.5184 13.3938C13.4336 13.4002 12.9952 13.4263 12.0173 13.4263C11.2396 13.4263 10.6873 13.403 10.4936 13.3938C7.48786 13.2616 5.24433 12.7384 5.24433 12.1119C5.24433 11.4854 7.48786 10.9629 10.4936 10.8286V12.8727C10.6902 12.8868 11.253 12.9201 12.0308 12.9201C12.9641 12.9201 13.4315 12.8812 13.5156 12.8734V10.83C16.515 10.9636 18.7536 11.4868 18.7536 12.1119C18.7536 12.7369 16.5157 13.2602 13.5156 13.3931L13.5184 13.3938ZM13.5184 10.6186V8.78938H17.7043V6H6.30776V8.78938H10.4929V10.6179C7.09119 10.7741 4.53302 11.448 4.53302 12.2554C4.53302 13.0629 7.09119 13.736 10.4929 13.893V19.7546H13.5177V13.8909C16.9117 13.7346 19.4656 13.0615 19.4656 12.2547C19.4656 11.448 16.9138 10.7748 13.5177 10.6179L13.5184 10.6186Z" fill="white"/>
</svg>
