<svg width="24" height="24" viewBox="0 0 24 24" fill="none" xmlns="http://www.w3.org/2000/svg">
<path d="M14.8421 21C14.6029 21 14.3736 20.9051 14.2045 20.7362C14.0354 20.5672 13.9404 20.3381 13.9404 20.0992V17.7572C13.9684 17.4878 13.9395 17.2155 13.8557 16.958C13.7718 16.7004 13.6348 16.4633 13.4534 16.2619C13.3412 16.1403 13.2646 15.9901 13.2321 15.8279C13.1997 15.6657 13.2126 15.4977 13.2694 15.3423C13.3262 15.1869 13.4248 15.0501 13.5543 14.947C13.6838 14.8439 13.8392 14.7783 14.0035 14.7576C16.2037 14.4964 18.2326 13.7938 18.2326 9.98353C18.2333 9.27199 18.0231 8.57617 17.6284 7.98381C17.2643 7.43851 17.1313 6.77125 17.2587 6.12822C17.34 5.70875 17.34 5.2776 17.2587 4.85813C16.5835 5.08618 15.9478 5.4174 15.3741 5.83997C15.2657 5.91691 15.1415 5.96893 15.0105 5.99229C14.8796 6.01565 14.7451 6.00977 14.6167 5.97509C12.9893 5.51575 11.2665 5.51575 9.63914 5.97509C9.51073 6.00977 9.37622 6.01565 9.24527 5.99229C9.11431 5.96893 8.99015 5.91691 8.88169 5.83997C8.30453 5.4125 7.66205 5.08095 6.97905 4.85813C6.8933 5.27716 6.8933 5.70919 6.97905 6.12822C7.09726 6.77935 6.95828 7.4509 6.59131 8.00183C6.1984 8.59834 5.98842 9.29649 5.98716 10.0106C5.98716 13.5146 7.6824 14.4514 10.2253 14.7757C10.3917 14.7963 10.549 14.8628 10.6796 14.9679C10.8102 15.0729 10.9089 15.2122 10.9647 15.3702C11.0171 15.5234 11.0272 15.688 10.9939 15.8465C10.9605 16.0051 10.885 16.1517 10.7753 16.2709C10.5999 16.4582 10.4653 16.6798 10.3799 16.9216C10.2946 17.1635 10.2603 17.4204 10.2794 17.6761V20.0992C10.2794 20.3381 10.1844 20.5672 10.0153 20.7362C9.84615 20.9051 9.61679 21 9.37764 21C9.13849 21 8.90913 20.9051 8.74003 20.7362C8.57092 20.5672 8.47592 20.3381 8.47592 20.0992V19.5858C7.58985 19.6876 6.69233 19.569 5.86324 19.2405C5.03415 18.9121 4.29921 18.3839 3.72383 17.7032C3.42806 17.3757 3.07321 17.1068 2.67783 16.9105C2.56296 16.8809 2.45505 16.829 2.36026 16.7578C2.26547 16.6866 2.18565 16.5974 2.12537 16.4953C2.06508 16.3933 2.0255 16.2804 2.0089 16.1631C1.99229 16.0457 1.99898 15.9263 2.02858 15.8115C2.05819 15.6968 2.11013 15.589 2.18143 15.4943C2.25274 15.3996 2.34202 15.3199 2.44417 15.2597C2.54633 15.1994 2.65936 15.1599 2.77681 15.1433C2.89425 15.1267 3.01382 15.1334 3.12869 15.163C3.82234 15.4154 4.44214 15.8364 4.93214 16.388C5.83386 17.2888 6.73559 18.0815 8.44886 17.7572C8.41874 17.2736 8.48936 16.789 8.65626 16.334C6.79871 15.8656 4.14764 14.5324 4.14764 10.0286C4.14526 8.96172 4.45901 7.91803 5.04936 7.02899C5.15901 6.86488 5.20101 6.66481 5.16659 6.47051C4.98437 5.4982 5.08772 4.49398 5.46416 3.57903C5.5153 3.45703 5.59272 3.34778 5.6909 3.25905C5.78908 3.17031 5.90562 3.10426 6.03224 3.06559C6.33883 2.97551 7.43893 2.79536 9.52192 4.14652C11.2081 3.74117 12.9665 3.74117 14.6527 4.14652C16.7357 2.79536 17.8358 2.9665 18.1334 3.06559C18.26 3.10426 18.3765 3.17031 18.4747 3.25905C18.5729 3.34778 18.6503 3.45703 18.7015 3.57903C19.0787 4.49695 19.182 5.50426 18.999 6.47952C18.9806 6.56739 18.9799 6.65806 18.9969 6.74622C19.0139 6.83438 19.0484 6.91826 19.0982 6.99296C19.6903 7.88456 20.0041 8.93163 20 10.0015C20 14.5685 17.3669 15.8926 15.4913 16.307C15.6566 16.7903 15.724 17.3017 15.6897 17.8113V20.0992C15.6901 20.3291 15.6026 20.5503 15.445 20.7178C15.2874 20.8853 15.0717 20.9862 14.8421 21Z" fill="#969696"/>
</svg>
